<?xml version="1.0" standalone="no"?><!DOCTYPE svg PUBLIC "-//W3C//DTD SVG 1.1//EN" "http://www.w3.org/Graphics/SVG/1.1/DTD/svg11.dtd"><svg t="1639637152680" class="icon" viewBox="0 0 1024 1024" version="1.1" xmlns="http://www.w3.org/2000/svg" p-id="3163" xmlns:xlink="http://www.w3.org/1999/xlink" width="200" height="200"><defs><style type="text/css"></style></defs><path d="M509.6 452c-4.8 0-9.6 0-15.2-0.8-36.8-4-70.4-24-92-53.6l-0.8-0.8c-0.8-0.8-1.6-1.6-1.6-2.4-15.2-22.4-23.2-48-23.2-75.2 0-8.8 0.8-18.4 2.4-27.2 12.8-60.8 67.2-105.6 129.6-105.6 44.8 0 86.4 22.4 111.2 60.8 14.4 21.6 21.6 46.4 21.6 72 0 11.2-1.6 22.4-4.8 33.6-4 14.4-10.4 28.8-18.4 40.8-21.6 32-56 52.8-94.4 56.8-4.8 1.6-9.6 1.6-14.4 1.6z m0-234.4c-48 0-90.4 34.4-100 81.6-1.6 7.2-2.4 13.6-2.4 20.8 0 20.8 6.4 40.8 17.6 57.6l0.8 0.8 1.6 1.6c16.8 23.2 42.4 38.4 71.2 41.6 8.8 0.8 15.2 0.8 23.2 0 29.6-3.2 56-19.2 72.8-44 6.4-9.6 11.2-20 14.4-31.2 2.4-8.8 3.2-17.6 3.2-26.4 0-20-5.6-39.2-16.8-55.2-19.2-29.6-51.2-47.2-85.6-47.2z" p-id="3164"></path><path d="M509.6 385.6c-36 0-65.6-29.6-65.6-65.6 0-36 29.6-65.6 65.6-65.6s65.6 29.6 65.6 65.6c0 36-29.6 65.6-65.6 65.6z m0-116c-28 0-50.4 22.4-50.4 50.4s22.4 50.4 50.4 50.4S560 348 560 320s-22.4-50.4-50.4-50.4zM768.8 908.8H668.8c-6.4 0-12.8-4-14.4-10.4L508 440.8c-1.6-4-0.8-8.8 1.6-12.8s6.4-6.4 11.2-7.2c29.6-3.2 56-19.2 72.8-44 3.2-4.8 8.8-7.2 14.4-6.4 5.6 0.8 10.4 4.8 12 10.4L782.4 888c1.6 4.8 0.8 9.6-2.4 13.6s-6.4 7.2-11.2 7.2zM680 878.4h67.2L600 416.8c-16 15.2-36 26.4-57.6 32L680 878.4z" p-id="3165"></path><path d="M349.6 908.8H250.4c-4.8 0-9.6-2.4-12-6.4s-4-8.8-2.4-13.6l162.4-507.2c1.6-5.6 6.4-9.6 12-10.4 5.6-0.8 11.2 1.6 14.4 6.4 16.8 24.8 43.2 40.8 72.8 44 4.8 0.8 8.8 3.2 11.2 7.2 2.4 4 3.2 8.8 1.6 12.8l-146.4 456.8c-1.6 5.6-7.2 10.4-14.4 10.4z m-78.4-30.4h67.2L476 448c-21.6-5.6-41.6-16.8-57.6-32l-147.2 462.4z" p-id="3166"></path><path d="M1000 996H19.2c-8.8 0-15.2-7.2-15.2-15.2v-87.2c0-8.8 7.2-15.2 15.2-15.2H1000c8.8 0 15.2 7.2 15.2 15.2v87.2c0 8.8-7.2 15.2-15.2 15.2zM34.4 965.6H984v-56.8H34.4v56.8zM623.2 364.8c-4 0-8-1.6-11.2-4.8-3.2-4-4.8-9.6-3.2-14.4 2.4-8.8 3.2-17.6 3.2-26.4 0-20-5.6-39.2-16.8-55.2-2.4-4-3.2-9.6-1.6-14.4 2.4-4.8 6.4-8 11.2-8.8l227.2-42.4c4-0.8 8.8 0 12.8 3.2 3.2 3.2 5.6 7.2 5.6 11.2l0.8 45.6 15.2 43.2c1.6 4 0.8 8.8-0.8 12.8-2.4 4-6.4 6.4-10.4 7.2l-229.6 43.2h-2.4z m8-97.6c7.2 16.8 11.2 34.4 11.2 52.8 0 4 0 7.2-0.8 11.2L832 296l-10.4-28c-0.8-1.6-0.8-3.2-0.8-4.8l-0.8-30.4-188.8 34.4zM57.6 470.4c-3.2 0-6.4-0.8-8.8-2.4-3.2-2.4-5.6-5.6-6.4-9.6L24.8 364.8c-1.6-8 4-16 12-17.6L392 280.8c4.8-0.8 10.4 0.8 13.6 4 3.2 4 4.8 8.8 4 13.6-1.6 7.2-2.4 13.6-2.4 20.8 0 20.8 6.4 40.8 17.6 57.6l0.8 0.8 1.6 1.6c3.2 4 4 9.6 1.6 14.4s-6.4 8-11.2 9.6L60 470.4h-2.4z m0-96l12 63.2 320.8-60c-8.8-17.6-13.6-37.6-13.6-57.6v-4.8L57.6 374.4z" p-id="3167"></path><path d="M904 464c-6.4 0-12-4-14.4-10.4l-68-187.2c-0.8-1.6-0.8-3.2-0.8-4.8L816 62.4c0-7.2 4.8-13.6 12.8-15.2l100.8-19.2c7.2-1.6 14.4 2.4 16.8 9.6l68 187.2c0.8 1.6 0.8 3.2 0.8 4.8l4 199.2c0 7.2-4.8 13.6-12.8 15.2L906.4 464h-2.4z m-52.8-205.6l63.2 172.8 75.2-14.4-4-184-63.2-172.8-75.2 14.4 4 184zM88.8 908.8c-8 0-14.4-6.4-15.2-14.4L42.4 456.8c-0.8-8 5.6-16 14.4-16 8.8-0.8 16 5.6 16 14.4l31.2 438.4c0.8 8-5.6 16-14.4 16 0-0.8-0.8-0.8-0.8-0.8z" p-id="3168"></path></svg>